<svg width="16" height="12" viewBox="0 0 16 12" fill="none" xmlns="http://www.w3.org/2000/svg">
<path d="M9.3 11.275C9.1 11.075 9.004 10.8333 9.012 10.55C9.02 10.2667 9.12434 10.025 9.325 9.825L12.15 7H1C0.71667 7 0.479004 6.904 0.287004 6.712C0.0950036 6.52 -0.000663206 6.28267 3.4602e-06 6C3.4602e-06 5.71667 0.0960036 5.479 0.288004 5.287C0.480004 5.095 0.717337 4.99934 1 5H12.15L9.3 2.15C9.1 1.95 9 1.71234 9 1.437C9 1.16167 9.1 0.924336 9.3 0.725003C9.5 0.525003 9.73767 0.425003 10.013 0.425003C10.2883 0.425003 10.5257 0.525003 10.725 0.725003L15.3 5.3C15.4 5.4 15.471 5.50834 15.513 5.625C15.555 5.74167 15.5757 5.86667 15.575 6C15.575 6.13334 15.554 6.25834 15.512 6.375C15.47 6.49167 15.3993 6.6 15.3 6.7L10.7 11.3C10.5167 11.4833 10.2877 11.575 10.013 11.575C9.73834 11.575 9.50067 11.475 9.3 11.275Z" fill="white"/>
</svg>
